<?xml version="1.0" encoding="UTF-8" standalone="no"?>
<!DOCTYPE svg PUBLIC "-//W3C//DTD SVG 1.1//EN" "http://www.w3.org/Graphics/SVG/1.1/DTD/svg11.dtd">
<svg version="1.1" xmlns="http://www.w3.org/2000/svg" xmlns:xlink="http://www.w3.org/1999/xlink" preserveAspectRatio="xMidYMid meet" viewBox="0 0 200 200" width="200" height="200"><defs><path d="M199 -1C199 119 199 185.67 199 199C199 199 199 199 199 199C79 199 12.33 199 -1 199C-1 199 -1 199 -1 199C-1 79 -1 12.33 -1 -1C-1 -1 -1 -1 -1 -1C119 -1 185.67 -1 199 -1C199 -1 199 -1 199 -1Z" id="f1sesMUSg"></path><path d="M199 -1C199 119 199 185.67 199 199C199 199 199 199 199 199C79 199 12.33 199 -1 199C-1 199 -1 199 -1 199C-1 79 -1 12.33 -1 -1C-1 -1 -1 -1 -1 -1C119 -1 185.67 -1 199 -1C199 -1 199 -1 199 -1Z" id="c55o25dB33"></path><path d="M15.93 144.33C15.93 145.93 16.96 147.69 18.27 148.42C26.09 152.94 88.69 189.15 96.52 193.67C97.83 194.4 99.88 194.4 101.19 193.67C109.04 189.12 171.88 152.68 179.73 148.12C181.04 147.39 182.07 145.5 182.07 144.04C182.07 135 182.07 62.71 182.07 53.67C182.07 52.07 181.04 50.31 179.73 49.58C171.88 45.06 109.04 8.85 101.19 4.33C99.88 3.6 97.83 3.6 96.52 4.33C91.3 7.35 65.22 22.43 18.27 49.58C16.71 51.34 15.93 52.7 15.93 53.67C15.93 62.74 15.93 135.26 15.93 144.33Z" id="adlDKm2YV"></path><path d="M15.93 144.33C15.93 145.93 16.96 147.69 18.27 148.42C26.09 152.94 88.69 189.15 96.52 193.67C97.83 194.4 99.88 194.4 101.19 193.67C109.04 189.12 171.88 152.68 179.73 148.12C181.04 147.39 182.07 145.5 182.07 144.04C182.07 135 182.07 62.71 182.07 53.67C182.07 52.07 181.04 50.31 179.73 49.58C171.88 45.06 109.04 8.85 101.19 4.33C99.88 3.6 97.83 3.6 96.52 4.33C91.3 7.35 65.22 22.43 18.27 49.58C16.71 51.34 15.93 52.7 15.93 53.67C15.93 62.74 15.93 135.26 15.93 144.33Z" id="a1hE5flnNd"></path><path d="M68.49 93.09C79.7 84.07 85.93 79.05 87.18 78.05C87.91 77.32 89.22 77.03 90.24 77.03C91.85 77.03 93.01 77.76 94.04 78.78C94.77 79.8 95.35 81.12 95.06 82.43C94.77 83.74 94.33 85.06 93.31 85.79C92.69 86.3 89.63 88.88 84.11 93.53C89.8 98.17 92.97 100.75 93.6 101.26C94.62 101.99 95.2 103.31 95.35 104.62C95.64 105.93 95.06 107.25 94.33 108.27C93.01 108.71 91.7 109.44 90.24 109.44C89.22 109.44 87.91 109.15 87.18 108.42C85.93 107.39 79.7 102.28 68.49 93.09Z" id="eeQEiJZVP"></path><path d="M68.49 93.09C79.7 84.07 85.93 79.05 87.18 78.05C87.91 77.32 89.22 77.03 90.24 77.03C91.85 77.03 93.01 77.76 94.04 78.78C94.77 79.8 95.35 81.12 95.06 82.43C94.77 83.74 94.33 85.06 93.31 85.79C92.69 86.3 89.63 88.88 84.11 93.53C89.8 98.17 92.97 100.75 93.6 101.26C94.62 101.99 95.2 103.31 95.35 104.62C95.64 105.93 95.06 107.25 94.33 108.27C93.01 108.71 91.7 109.44 90.24 109.44C89.22 109.44 87.91 109.15 87.18 108.42C85.93 107.39 79.7 102.28 68.49 93.09Z" id="kNakGS6bY"></path><path d="M105.28 100.82C105.91 100.31 109.07 97.73 114.77 93.09C109.25 88.45 106.18 85.87 105.57 85.35C104.55 84.62 103.96 83.31 103.82 81.99C103.53 80.68 104.11 79.36 104.84 78.34C105.86 77.32 107.18 76.59 108.64 76.59C109.66 76.59 110.97 76.88 111.7 77.61C112.95 78.63 119.18 83.69 130.39 92.8C119.18 101.99 112.95 107.1 111.7 108.12C110.68 108.85 109.66 109.44 108.34 109.44C106.74 109.44 105.57 108.71 104.55 107.69C102.8 105.64 103.23 102.58 105.28 100.82Z" id="abLVN8HXj"></path><path d="M105.28 100.82C105.91 100.31 109.07 97.73 114.77 93.09C109.25 88.45 106.18 85.87 105.57 85.35C104.55 84.62 103.96 83.31 103.82 81.99C103.53 80.68 104.11 79.36 104.84 78.34C105.86 77.32 107.18 76.59 108.64 76.59C109.66 76.59 110.97 76.88 111.7 77.61C112.95 78.63 119.18 83.69 130.39 92.8C119.18 101.99 112.95 107.1 111.7 108.12C110.68 108.85 109.66 109.44 108.34 109.44C106.74 109.44 105.57 108.71 104.55 107.69C102.8 105.64 103.23 102.58 105.28 100.82Z" id="a3N30nFHSV"></path><path d="M48.34 70.75C48.34 75.04 48.34 109.38 48.34 113.67C48.34 122.58 55.79 130.02 64.69 130.02C68.46 130.02 87.29 130.02 121.19 130.02C119.9 131.74 113.42 140.36 101.77 155.86L117.83 155.86C117.83 155.86 117.83 155.86 117.83 155.86C127.2 143.42 132.41 136.51 133.45 135.13C136.52 131.04 137.25 126.37 135.5 122.87C133.74 119.07 129.66 117.03 124.55 117.03C118.56 117.03 70.68 117.03 64.69 117.03C62.94 117.03 61.34 115.42 61.34 113.67C61.34 109.38 61.34 75.04 61.34 70.75C61.34 69 62.94 67.39 64.69 67.39C71.58 67.39 126.71 67.39 133.6 67.39C135.35 67.39 136.96 69 136.96 70.75C136.96 73.77 136.96 97.95 136.96 100.97C136.96 104.62 139.73 107.39 143.38 107.39C147.03 107.39 149.8 104.62 149.8 100.97C149.8 97.95 149.8 73.77 149.8 70.75C149.51 61.85 142.36 54.4 133.45 54.4C119.7 54.4 71.57 54.4 64.69 54.4C55.79 54.4 48.34 61.85 48.34 70.75Z" id="e29qzkx4eC"></path><path d="M48.27 70.75C48.27 75.04 48.27 109.38 48.27 113.67C48.27 122.58 55.72 130.02 64.62 130.02C68.39 130.02 87.22 130.02 121.12 130.02C119.83 131.74 113.35 140.36 101.7 155.86L117.76 155.86C117.76 155.86 117.76 155.86 117.76 155.86C127.13 143.42 132.34 136.51 133.38 135.13C136.45 131.04 137.18 126.37 135.43 122.87C133.67 119.07 129.59 117.03 124.48 117.03C118.49 117.03 70.61 117.03 64.62 117.03C62.87 117.03 61.27 115.42 61.27 113.67C61.27 109.38 61.27 75.04 61.27 70.75C61.27 69 62.87 67.39 64.62 67.39C71.51 67.39 126.64 67.39 133.53 67.39C135.28 67.39 136.89 69 136.89 70.75C136.89 73.77 136.89 97.95 136.89 100.97C136.89 104.62 139.66 107.39 143.31 107.39C146.96 107.39 149.73 104.62 149.73 100.97C149.73 97.95 149.73 73.77 149.73 70.75C149.44 61.85 142.29 54.4 133.38 54.4C119.63 54.4 71.5 54.4 64.62 54.4C55.72 54.4 48.27 61.85 48.27 70.75Z" id="bj6sBbHaa"></path></defs><g><g><g><use xlink:href="#f1sesMUSg" opacity="1" fill="#000000" fill-opacity="0"></use><g><use xlink:href="#f1sesMUSg" opacity="1" fill-opacity="0" stroke="#000000" stroke-width="1" stroke-opacity="0"></use></g></g><g><use xlink:href="#c55o25dB33" opacity="1" fill="#000000" fill-opacity="0"></use><g><use xlink:href="#c55o25dB33" opacity="1" fill-opacity="0" stroke="#000000" stroke-width="1" stroke-opacity="0"></use></g></g><g><use xlink:href="#adlDKm2YV" opacity="1" fill="#414141" fill-opacity="1"></use><g><use xlink:href="#adlDKm2YV" opacity="1" fill-opacity="0" stroke="#000000" stroke-width="1" stroke-opacity="0"></use></g></g><g><use xlink:href="#a1hE5flnNd" opacity="1" fill="#ffffff" fill-opacity="1"></use><g><use xlink:href="#a1hE5flnNd" opacity="1" fill-opacity="0" stroke="#a0a0a0" stroke-width="7" stroke-opacity="1"></use></g></g><g><use xlink:href="#eeQEiJZVP" opacity="1" fill="#00c947" fill-opacity="1"></use><g><use xlink:href="#eeQEiJZVP" opacity="1" fill-opacity="0" stroke="#000000" stroke-width="1" stroke-opacity="0"></use></g></g><g><use xlink:href="#kNakGS6bY" opacity="1" fill="#404040" fill-opacity="1"></use><g><use xlink:href="#kNakGS6bY" opacity="1" fill-opacity="0" stroke="#ffffff" stroke-width="1" stroke-opacity="1"></use></g></g><g><use xlink:href="#abLVN8HXj" opacity="1" fill="#00c947" fill-opacity="1"></use><g><use xlink:href="#abLVN8HXj" opacity="1" fill-opacity="0" stroke="#000000" stroke-width="1" stroke-opacity="0"></use></g></g><g><use xlink:href="#a3N30nFHSV" opacity="1" fill="#404040" fill-opacity="1"></use><g><use xlink:href="#a3N30nFHSV" opacity="1" fill-opacity="0" stroke="#ffffff" stroke-width="1" stroke-opacity="1"></use></g></g><g><use xlink:href="#e29qzkx4eC" opacity="1" fill="#00c947" fill-opacity="1"></use><g><use xlink:href="#e29qzkx4eC" opacity="1" fill-opacity="0" stroke="#000000" stroke-width="1" stroke-opacity="0"></use></g></g><g><use xlink:href="#bj6sBbHaa" opacity="1" fill="#404040" fill-opacity="1"></use><g><use xlink:href="#bj6sBbHaa" opacity="1" fill-opacity="0" stroke="#ffffff" stroke-width="1" stroke-opacity="1"></use></g></g></g></g></svg>